<mxfile host="65bd71144e">
    <diagram id="3Ksf1eC3BbXml5cHnylW" name="Página-1">
        <mxGraphModel dx="752" dy="496" grid="1" gridSize="10" guides="1" tooltips="1" connect="1" arrows="1" fold="1" page="1" pageScale="1" pageWidth="827" pageHeight="1169" math="0" shadow="0">
            <root>
                <mxCell id="0"/>
                <mxCell id="1" parent="0"/>
                <mxCell id="2" value="Persona" style="swimlane;" vertex="1" parent="1">
                    <mxGeometry x="290" y="160" width="200" height="200" as="geometry"/>
                </mxCell>
                <mxCell id="3" value="Nombre: 1 Texto&lt;br&gt;Primer apellido : 1 Texto&lt;br&gt;Segundo apellido : 0...1 Texto&lt;br&gt;Fecha de nacimiento: 1 Tiempo&lt;br&gt;Sexo: 1 Texto&lt;br&gt;Número de identificación:0...1Texto" style="text;html=1;strokeColor=none;fillColor=none;align=center;verticalAlign=middle;whiteSpace=wrap;rounded=0;" vertex="1" parent="2">
                    <mxGeometry x="10" y="45" width="170" height="125" as="geometry"/>
                </mxCell>
            </root>
        </mxGraphModel>
    </diagram>
</mxfile>